<svg xmlns="http://www.w3.org/2000/svg" viewBox="0 0 390 260" role="img" aria-label="Granville">
  <defs>
    <linearGradient id="sky" x1="0" y1="0" x2="0" y2="1">
      <stop offset="0" stop-color="#F6ECE0"/>
      <stop offset="1" stop-color="#F3D9CF"/>
    </linearGradient>
  </defs>
  <rect width="390" height="260" fill="url(#sky)"/>
  <circle cx="312" cy="64" r="30" fill="#E9A48C" opacity="0.55"/>
  <!-- mer -->
  <path d="M0 186 h390 v74 H0 z" fill="#D75C45" opacity="0.16"/>
  <path d="M0 196 q40 -8 80 0 t80 0 t80 0 t80 0 t80 0 v64 H0 z" fill="#D75C45" opacity="0.22"/>
  <!-- maisons de la cité corsaire -->
  <g fill="#B8472F" opacity="0.9">
    <rect x="70" y="120" width="46" height="70"/>
    <rect x="120" y="100" width="40" height="90"/>
    <rect x="164" y="132" width="38" height="58"/>
    <rect x="206" y="108" width="44" height="82"/>
    <rect x="254" y="128" width="40" height="62"/>
  </g>
  <g fill="#D75C45">
    <path d="M64 120 l29 -22 l29 22 z"/>
    <path d="M116 100 l24 -20 l24 20 z"/>
    <path d="M160 132 l23 -18 l23 18 z"/>
    <path d="M202 108 l26 -20 l26 20 z"/>
    <path d="M250 128 l24 -18 l24 18 z"/>
  </g>
  <!-- fenêtres -->
  <g fill="#FBF6EF" opacity="0.85">
    <rect x="84" y="138" width="8" height="12"/><rect x="98" y="138" width="8" height="12"/>
    <rect x="132" y="120" width="8" height="12"/><rect x="146" y="120" width="8" height="12"/>
    <rect x="220" y="128" width="8" height="12"/><rect x="234" y="128" width="8" height="12"/>
  </g>
  <text x="195" y="238" text-anchor="middle" font-family="Georgia, serif" font-size="22" fill="#B8472F" opacity="0.75">Granville</text>
</svg>
