<svg xmlns="http://www.w3.org/2000/svg" viewBox="0 0 390 260" role="img" aria-label="Sur les quais — Caen">
  <defs>
    <linearGradient id="sky" x1="0" y1="0" x2="0" y2="1">
      <stop offset="0" stop-color="#F6ECE0"/>
      <stop offset="1" stop-color="#F3D9CF"/>
    </linearGradient>
  </defs>
  <rect width="390" height="260" fill="url(#sky)"/>
  <circle cx="312" cy="58" r="26" fill="#E9A48C" opacity="0.55"/>

  <!-- façades des quais -->
  <g fill="#D75C45" opacity="0.9">
    <rect x="40" y="92" width="44" height="96"/>
    <rect x="90" y="78" width="40" height="110"/>
    <rect x="136" y="100" width="38" height="88"/>
    <rect x="180" y="84" width="42" height="104"/>
    <rect x="228" y="104" width="36" height="84"/>
    <rect x="270" y="88" width="44" height="100"/>
    <rect x="320" y="110" width="34" height="78"/>
  </g>
  <!-- toits -->
  <g fill="#B8472F" opacity="0.95">
    <path d="M40 92 l22 -16 l22 16 z"/>
    <path d="M90 78 l20 -16 l20 16 z"/>
    <path d="M180 84 l21 -16 l21 16 z"/>
    <path d="M270 88 l22 -16 l22 16 z"/>
  </g>
  <!-- fenêtres -->
  <g fill="#FBF6EF" opacity="0.85">
    <rect x="52" y="108" width="9" height="13"/><rect x="64" y="108" width="9" height="13"/>
    <rect x="100" y="96" width="9" height="13"/><rect x="112" y="96" width="9" height="13"/>
    <rect x="146" y="116" width="9" height="13"/><rect x="158" y="116" width="9" height="13"/>
    <rect x="190" y="102" width="9" height="13"/><rect x="202" y="102" width="9" height="13"/>
    <rect x="238" y="120" width="9" height="13"/>
    <rect x="282" y="106" width="9" height="13"/><rect x="294" y="106" width="9" height="13"/>
    <rect x="330" y="126" width="9" height="13"/>
  </g>

  <!-- le bassin / les quais -->
  <path d="M0 188 h390 v72 H0 z" fill="#D75C45" opacity="0.16"/>
  <path d="M0 196 q40 -7 80 0 t80 0 t80 0 t80 0 t80 0 v64 H0 z" fill="#D75C45" opacity="0.22"/>

  <!-- voilier -->
  <g opacity="0.9">
    <rect x="196" y="150" width="2.4" height="40" fill="#B8472F"/>
    <path d="M198 152 l26 30 h-26 z" fill="#FBF6EF" opacity="0.92"/>
    <path d="M196 154 l-18 28 h18 z" fill="#E9A48C" opacity="0.92"/>
    <path d="M176 188 h46 l-6 10 h-34 z" fill="#B8472F"/>
  </g>

  <text x="195" y="240" text-anchor="middle" font-family="Georgia, serif" font-size="20" fill="#B8472F" opacity="0.78">Sur les quais — Caen</text>
</svg>
